<svg version="1.1" xmlns="http://www.w3.org/2000/svg" viewBox="0 0 86.28880747928156 47.58374639188622" width="86.28880747928156" height="47.58374639188622">
  <!-- svg-source:excalidraw -->
  
  
  <defs>
    <style class="style-fonts">
      @font-face {
        font-family: "Virgil";
        src: url("https://excalidraw.com/Virgil.woff2");
      }
      @font-face {
        font-family: "Cascadia";
        src: url("https://excalidraw.com/Cascadia.woff2");
      }
      @font-face {
        font-family: "Assistant";
        src: url("https://excalidraw.com/Assistant-Regular.woff2");
      }
    </style>
    
  </defs>
  <rect x="0" y="0" width="86.28880747928156" height="47.58374639188622" fill="#ffffff"></rect><g stroke-linecap="round" transform="translate(10 10) rotate(0 33.14440373964078 13.791873195943111)"><path d="M0 0 C14.13 0.83, 28.1 0.04, 66.29 0 M0 0 C22.33 0.76, 42.89 0.74, 66.29 0 M66.29 0 C65.13 10.09, 65.94 21.97, 66.29 27.58 M66.29 0 C67.26 5.1, 65.79 11.46, 66.29 27.58 M66.29 27.58 C47.84 29.05, 25.27 28.72, 0 27.58 M66.29 27.58 C45.05 29.13, 22.59 27.7, 0 27.58 M0 27.58 C1.66 21.28, -1.15 14.54, 0 0 M0 27.58 C-0.93 18.26, 0.79 7.92, 0 0" stroke="#087f5b" stroke-width="1" fill="none"></path></g></svg>