<svg version="1.1" xmlns="http://www.w3.org/2000/svg" viewBox="0 0 51.818514303634174 55" width="51.818514303634174" height="55">
  <!-- svg-source:excalidraw -->
  
  <defs>
    <style class="style-fonts">
      @font-face {
        font-family: "Virgil";
        src: url("https://excalidraw.com/Virgil.woff2");
      }
      @font-face {
        font-family: "Cascadia";
        src: url("https://excalidraw.com/Cascadia.woff2");
      }
      @font-face {
        font-family: "Assistant";
        src: url("https://excalidraw.com/Assistant-Regular.woff2");
      }
    </style>
    
  </defs>
  <rect x="0" y="0" width="51.818514303634174" height="55" fill="#ffffff"></rect><g stroke-linecap="round" transform="translate(10 10) rotate(0 15.909257151817087 17.5)"><path d="M0.1 0.84 L32.13 -0.98 L31.06 34.95 L-0.34 34.41" stroke="none" stroke-width="0" fill="#fff"></path><path d="M0 0 C9.73 0.67, 20.29 -0.57, 31.82 0 M0 0 C11.73 -0.22, 23.42 -0.02, 31.82 0 M31.82 0 C31.45 13.21, 31 23.98, 31.82 35 M31.82 0 C31.78 10.61, 32.19 20.2, 31.82 35 M31.82 35 C21.4 35.17, 9.86 34.28, 0 35 M31.82 35 C24.37 35.56, 16.41 34.86, 0 35 M0 35 C-0.69 21.67, 0.47 10.88, 0 0 M0 35 C0.45 23.71, 0.31 13.21, 0 0" stroke="#fa5252" stroke-width="2" fill="none"></path></g><g stroke-linecap="round"><g transform="translate(16.559685203822482 25.10781151487822) rotate(0 9.929016713277747 0)"><path d="M-0.03 0.29 C3.32 0.31, 16.87 -0.42, 20.25 -0.4 M-0.71 -0.04 C2.58 0.08, 16.56 0.16, 20.02 0.1" stroke="#fa5252" stroke-width="2" fill="none"></path></g></g><mask></mask></svg>