<svg version="1.1" xmlns="http://www.w3.org/2000/svg" viewBox="0 0 50.668424647900224 54" width="50.668424647900224" height="54">
  <!-- svg-source:excalidraw -->
  
  <defs>
    <style class="style-fonts">
      @font-face {
        font-family: "Virgil";
        src: url("https://excalidraw.com/Virgil.woff2");
      }
      @font-face {
        font-family: "Cascadia";
        src: url("https://excalidraw.com/Cascadia.woff2");
      }
      @font-face {
        font-family: "Assistant";
        src: url("https://excalidraw.com/Assistant-Regular.woff2");
      }
    </style>
    
  </defs>
  <rect x="0" y="0" width="50.668424647900224" height="54" fill="#ffefe8"></rect><g stroke-linecap="round" transform="translate(10 10) rotate(0 15.334212323950112 17)"><path d="M0.75 -1.67 L30.97 -1.21 L31.88 34.83 L0.49 34.48" stroke="none" stroke-width="0" fill="#ff702a"></path><path d="M-0.66 -0.61 C10.27 0.78, 22.5 0.21, 29.11 -1.19 M-0.08 -0.86 C7.53 -0.61, 13.45 -0.83, 31.04 -0.56 M32.27 -1.97 C30.45 8.81, 32.3 21.39, 29.47 33.62 M30.05 0.24 C31.79 7.61, 30.51 13.3, 31.17 34.77 M31.34 32.31 C22.74 32.46, 13.64 32.59, 1.72 34.7 M30.13 34.08 C20.71 34.07, 10.08 33.72, -0.87 33.35 M0.43 34.66 C-0.88 24.67, 1.02 13.92, -0.69 -0.54 M0.32 33.79 C0.14 20.41, 0.34 7.62, 0.32 0.31" stroke="#ff702a" stroke-width="1" fill="none"></path></g><g stroke-linecap="round"><g transform="translate(16.090656119772348 22.546376935239778) rotate(0 4.000026514483579 0.6550298139057986)"><path d="M-0.3 -0.02 C1.04 0.08, 6.76 0.77, 8.18 0.98 M0.19 -0.34 C1.49 -0.05, 6.68 0.95, 8 1.26" stroke="#087f5b" stroke-width="1" fill="none"></path></g></g><mask></mask><g stroke-linecap="round"><g transform="translate(16.258218430482316 27.49540309284407) rotate(0 3.6759697223093895 -0.7572139618766869)"><path d="M-0.02 0.18 C1.09 0.01, 5.81 -1, 7.02 -1.31 M-0.46 -0.03 C0.73 -0.28, 6.41 -1.6, 7.65 -1.83" stroke="#087f5b" stroke-width="1" fill="none"></path></g></g><mask></mask><g stroke-linecap="round"><g transform="translate(28.551341530631817 23.38277814268872) rotate(0 3.926286932438188 -0.5228669545440425)"><path d="M0.18 -0.33 C1.57 -0.52, 6.81 -1.06, 8.06 -1.16 M-0.15 0.27 C1.24 0.13, 6.63 -0.47, 7.88 -0.76" stroke="#087f5b" stroke-width="1" fill="none"></path></g></g><mask></mask><g stroke-linecap="round"><g transform="translate(28.95845572721987 25.505809117572426) rotate(0 3.8214746172355945 0.8774871938809383)"><path d="M-0.33 0.2 C0.93 0.44, 6.18 1.3, 7.53 1.58 M0.14 0 C1.35 0.26, 5.95 1.74, 7.2 1.94" stroke="#087f5b" stroke-width="1" fill="none"></path></g></g><mask></mask><g stroke-linecap="round"><g transform="translate(28.328544162466187 27.056459221762225) rotate(0 2.4367448601291244 2.8102464061577166)"><path d="M0.2 -0.11 C0.96 0.91, 3.9 4.86, 4.7 5.78 M-0.12 -0.47 C0.74 0.47, 4.58 4.21, 5.41 5.24" stroke="#087f5b" stroke-width="1" fill="none"></path></g></g><mask></mask><g stroke-linecap="round"><g transform="translate(26.440646371784965 27.526871083238575) rotate(0 -0.0900430213567347 3.083865022413761)"><path d="M-0.11 -0.17 C-0.06 0.84, 0.02 5.24, -0.02 6.28 M0.48 0.5 C0.53 1.39, -0.02 4.74, -0.21 5.72" stroke="#087f5b" stroke-width="1" fill="none"></path></g></g><mask></mask><g stroke-linecap="round"><g transform="translate(24.372678471292716 27.271215109514287) rotate(0 -2.7335265579211523 2.55740791598123)"><path d="M-0.17 0.16 C-1.1 1.01, -4.45 4.08, -5.35 4.94 M0.38 -0.06 C-0.6 0.84, -4.53 4.5, -5.57 5.3" stroke="#087f5b" stroke-width="1" fill="none"></path></g></g><mask></mask><g stroke-linecap="round"><g transform="translate(19.406061486651765 16.533947681383097) rotate(0 2.4367448601291244 2.8102464061577166)"><path d="M0.16 0.11 C0.97 1.06, 3.88 4.54, 4.7 5.5 M-0.18 -0.14 C0.75 0.88, 4.54 4.99, 5.41 5.9" stroke="#087f5b" stroke-width="1" fill="none"></path></g></g><mask></mask><g stroke-linecap="round"><g transform="translate(27.448904203786242 22.048114908223397) rotate(0 3.19634806494372 -2.4454152970016594)"><path d="M0.11 -0.17 C1.19 -0.98, 5.19 -3.85, 6.28 -4.65 M-0.26 0.5 C0.78 -0.41, 4.8 -4.29, 5.94 -5.16" stroke="#087f5b" stroke-width="1" fill="none"></path></g></g><mask></mask><g stroke-linecap="round"><g transform="translate(25.777675452247763 15.87760716099433) rotate(0 -0.0900430213567347 3.083865022413761)"><path d="M-0.17 -0.12 C-0.19 0.94, 0.08 5.38, 0.06 6.42 M0.38 -0.48 C0.33 0.46, 0.07 4.77, -0.1 5.93" stroke="#087f5b" stroke-width="1" fill="none"></path></g></g><mask></mask></svg>